<?xml version="1.0" encoding="utf-8"?>
<!-- Generator: Adobe Illustrator 19.0.0, SVG Export Plug-In . SVG Version: 6.00 Build 0)  -->
<svg version="1.1" id="Layer_1" xmlns="http://www.w3.org/2000/svg" xmlns:xlink="http://www.w3.org/1999/xlink" x="0px" y="0px"
	 viewBox="-535.6 734.8 20.6 20.6" style="enable-background:new -535.6 734.8 20.6 20.6;" xml:space="preserve">
<style type="text/css">
	.st0{fill:#FFFFFF;}
</style>
<g>
	<path class="st0" d="M-525.3,755.4c5.7,0,10.3-4.6,10.3-10.3s-4.6-10.3-10.3-10.3s-10.3,4.6-10.3,10.3S-531,755.4-525.3,755.4z
		 M-525.3,736c5,0,9.1,4.1,9.1,9.1s-4.1,9.1-9.1,9.1s-9.1-4.1-9.1-9.1S-530.3,736-525.3,736z"/>
	<path class="st0" d="M-529.2,749c0.1,0.1,0.3,0.2,0.4,0.2c0.1,0,0.3-0.1,0.4-0.2l3.1-3.1l3.1,3.1c0.1,0.1,0.3,0.2,0.4,0.2
		c0.1,0,0.3-0.1,0.4-0.2c0.2-0.2,0.2-0.6,0-0.8l-3.1-3.1l3.1-3.1c0.2-0.2,0.2-0.6,0-0.8c-0.2-0.2-0.6-0.2-0.8,0l-3.1,3.1l-3.1-3.1
		c-0.2-0.2-0.6-0.2-0.8,0c-0.2,0.2-0.2,0.6,0,0.8l3.1,3.1l-3.1,3.1C-529.4,748.4-529.4,748.8-529.2,749z"/>
</g>
</svg>
