<?xml version="1.0" encoding="utf-8"?>
<!-- Generator: Adobe Illustrator 19.0.0, SVG Export Plug-In . SVG Version: 6.00 Build 0)  -->
<svg version="1.1" id="Layer_8" xmlns="http://www.w3.org/2000/svg" xmlns:xlink="http://www.w3.org/1999/xlink" x="0px" y="0px"
	 viewBox="0 0 511.6 442.6" style="enable-background:new 0 0 511.6 442.6;" xml:space="preserve">
<style type="text/css">
	.st0{fill:#2D294C;stroke:#FFFFFF;stroke-width:22;stroke-miterlimit:10;}
	.st1{fill:#2D294C;stroke:#FFFFFF;stroke-width:12;stroke-miterlimit:10;}
	.st2{fill:#FFFDEE;}
	.st3{fill:#A9DDED;}
	.st4{fill:#BBECF5;}
	.st5{fill:#25253A;}
	.st6{fill:#8D84A0;}
	.st7{fill:#7A7A93;}
	.st8{fill:#2D294C;}
	.st9{fill:#FFFEF8;}
	.st10{fill:#DFDFE5;}
</style>
<path id="XMLID_6_" class="st0" d="M498.7,159.9c-1.9-6.8-5.3-12.9-10.3-17.4c-2.5-2.2-5.4-4.1-8.7-5.3c-3.3-1.3-6.9-1.9-10.8-1.9
	c-5.4,0-11.3,1.3-17.8,4c-0.2,0.1-0.4,0.2-0.6,0.3c-0.7-5.9-2.9-11.6-6.2-16.2c-2-2.8-4.5-5.3-7.5-7c-2.9-1.8-6.3-2.8-9.9-2.8
	c-2.2,0-4.5,0.4-6.7,1.2c-3.4,1.2-6.7,3.4-9.9,6.5c-1.9,1.8-3.7,4-5.5,6.4c-2.7-6.4-5.9-12.8-9.6-19.1c-5.4-9.2-11.9-18.3-19.4-27.1
	c0-0.1,0-0.1,0-0.2c0-4.7-0.9-9.3-2.5-13.6c-1.6-4.3-4.1-8.2-7.2-11.4c-3.2-3.2-7.1-5.6-11.4-7.3c-4.3-1.7-8.9-2.5-13.6-2.5
	c-1,0-2.1,0.1-3.1,0.1c-4.7-3.5-9.7-7-14.9-10.3c-0.1-0.1-0.2-0.1-0.3-0.2c-16.6-8.6-33.1-12.4-48.7-12.4
	c-26.7,0-50.5,11.4-67.5,29.3c-5.9,6.2-11,13.2-15.1,20.8c-2.4-0.8-4.9-1.2-7.3-1.2c-4.1,0-8.2,1.1-11.8,2.9c-3.6,1.8-6.8,4.5-9,7.7
	c-2.6,3.9-3.9,8.6-3.9,13.4c0,4.4,1.1,8.9,3.4,12.8c2.3,3.9,5.9,7.2,10.8,9c1.8,0.7,3.7,1,5.5,1.1c0,0.9,0,1.8,0,2.8
	c0,5.6,0.5,11.3,1.4,17.1c-4.7-3.9-9.8-7.3-14.8-9.6c-9.6-4.4-19.6-6.5-29.3-6.5c-7.4,0-14.5,1.5-21.2,3.9c-2.6-2.2-6-3.3-9.7-3.3
	H57.7c-4.1,0-8.4,1.4-11.1,4.1c-2.7,2.7-4.9,6.2-4.9,10.3v7.9c0,4.1,2.2,8.2,4.9,10.9c2.7,2.7,7,4.7,11.1,4.7h48.1
	c4.1,0,7.9-2,10.6-4.7c2-2,3.4-4.7,4.1-7.6c4.8-2.5,10.2-3.8,15.8-3.8c6.2,0,12.7,1.4,19.3,4.4c1,0.5,2,1,3,1.5
	c-12.2,0.9-23.2,3.9-33.1,8.5c-17.9,8.4-31.8,22.2-41.1,38.6c-0.6,1.1-1.2,2.2-1.8,3.4c-0.2,0-0.5,0-0.7,0c-3.4,0-6.8,0.3-9.9,0.9
	c-11.7,2.3-22.1,7.6-30.5,15c-8.5,7.4-15,17-19.2,27.7l-0.1,0.2c-0.4,1.2-1.2,3.3-1.2,5.9c0,1.3,0.2,2.8,0.7,4.2l0,0.1
	c0.9,2.6,2.6,4.7,4.6,6.2c2.1,1.5,4.6,3,7.3,3c0.2,0,0.4,0.5,0.7,0.5h0c1.4,0,2.8-0.9,4-1.5c1.8-0.8,3.3-2.4,4.4-3.7
	c1.1-1.4,1.9-3,2.7-4.5l0.1-0.3c2.6-6.7,6.7-12.3,11.9-16.6c4.2-3.5,9.3-6.1,15-7.7c-1.4,7.1-2.1,14.3-2.1,21.5
	c0,12.8,2.2,25.5,6.8,37.5c0.2,0.4,0.3,0.9,0.5,1.3c-3.1,0.5-6.3,1.2-9.3,2.1c-8.1,2.3-15.8,5.5-21.8,9.9
	c-8.7,6.5-15.4,14.8-19.9,24.1c-4.5,9.3-6.7,19.6-6.7,30c0,1.9,0.1,3.9,0.2,5.9l0,0.2c0.1,0.9,0.3,2.4,0.8,4.1
	c0.5,1.7,1.5,3.6,3.2,5.3l0.1,0.1c2.5,2.5,5.9,3.8,9.2,3.8c2,0,4-0.5,5.8-1.5c1.3-0.7,2.3-1.6,3.2-2.6c1.3-1.5,2-3.3,2.4-5
	c0.4-1.7,0.5-3.4,0.5-5.1l0-0.3c-0.1-1.1-0.1-2.1-0.1-3.2c0-6.5,1.5-12.7,4.4-18.2c2.9-5.5,7.1-10.5,12.7-14.6
	c3.3-2.5,7.2-4.3,11.4-5.5c4.2-1.2,8.7-1.7,13.2-1.7c2.9,0,5.7,0.2,8.5,0.7c0.8,0.9,1.7,1.8,2.6,2.7l0.2,0.1
	c20.4,18,41.6,30.8,63.1,39.1c21.4,8.3,43.1,12.1,64.2,12.1c15.4,0,30.6-2,45.2-5.8c0.3,0.9,0.6,1.8,0.9,2.7c1.1,4,1.6,7.8,1.6,11.6
	c0,5-0.9,9.9-2.7,14.4c-1.8,4.5-4.5,8.8-8,12.7l-0.2,0.2c-1,1.3-2,2.6-2.7,4.2c-0.8,1.5-1.3,3.3-1.3,5.2c0,1.4,0.3,2.9,0.9,4.4
	c1,2.4,2.7,4.3,4.8,5.6c2.1,1.3,4.5,2,7,2c0.5,0,1,0,1.5-0.1l0.1,0c2.4-0.3,4.3-1.2,5.8-2.2c1.5-1,2.5-2,3.2-2.7l0.1-0.1
	c11.9-12.7,18.9-29.3,18.9-46.7c0-5.5-0.7-11.2-2.2-16.7c-0.3-1.2-0.7-2.3-1.1-3.5c0.5-0.2,1.1-0.5,1.7-0.7
	c11.9-5.1,23.1-11.5,33.7-18.7c-0.3,1-0.6,2-1,2.9c-1.8,4.5-4.5,8.8-8,12.7l-0.2,0.2c-1,1.3-2,2.6-2.7,4.2c-0.8,1.5-1.3,3.3-1.3,5.2
	c0,1.4,0.3,2.9,0.9,4.4c1,2.4,2.7,4.3,4.8,5.6c2.1,1.3,4.5,2,7,2c0.5,0,1,0,1.5-0.1l0.1,0c2.4-0.3,4.3-1.2,5.8-2.2
	c1.5-1,2.5-2,3.2-2.7l0.1-0.1c11.9-12.7,18.9-29.3,18.9-46.7c0-2.9-0.2-5.9-0.6-8.8c8.4-8.3,16.1-17.4,22.9-27
	c16.6-23.4,28-50.2,32.1-78.2c1.9,1.1,3.9,2.1,6,3c7.1,3,15,4.7,21.1,5.7c6.1,1,10.5,1.3,10.6,1.3l0,0c1.5,0.1,3,0.2,4.5,0.2
	c7.1,0,13.4-1.6,18.8-4.3c8.1-4.1,14.1-10.8,18-18.5c3.9-7.7,5.8-16.4,5.8-24.9C500.6,169.2,500,164.4,498.7,159.9z"/>
<path id="XMLID_24_" class="st1" d="M273.9,40.1c-6.5-1.4-12.4-5.2-16.8-10.4c-4.4-5.2-7.1-11.6-7.3-18.1c-0.1-2.4-2.1-4.8-4.4-5.3
	c-2.4-0.5-4.3,1.1-4.2,3.5c0.2,9,4.1,17.9,10,24.9c6,7.1,14.1,12.4,22.9,14.2c2.4,0.5,4.3-1.1,4.2-3.5
	C278.2,43,276.2,40.6,273.9,40.1L273.9,40.1z"/>
<path id="XMLID_23_" class="st1" d="M297.7,44.6c-6.5-1.4-12.4-5.2-16.8-10.4c-4.4-5.2-7.1-11.6-7.3-18.1c-0.1-2.4-2.1-4.8-4.4-5.3
	c-2.4-0.5-4.3,1.1-4.2,3.5c0.2,9,4.1,17.9,10,24.9c6,7.1,14.1,12.4,22.9,14.2c2.4,0.5,4.3-1.1,4.2-3.5
	C302.1,47.5,300.1,45.1,297.7,44.6L297.7,44.6z"/>
<g id="XMLID_1_">
	<g id="XMLID_625_">
		<g id="XMLID_626_">
			<path id="XMLID_666_" class="st2" d="M183.2,79.6c-2.9,0-6,0.8-8.6,2.1c-2.7,1.3-4.9,3.3-6.3,5.4c-1.7,2.5-2.7,5.9-2.7,9.5
				c0,3.3,0.8,6.6,2.4,9.3c1.6,2.7,3.9,4.8,7.2,6.1c1.2,0.4,2.3,0.6,3.4,0.7c1.1-11.4,4.1-22.4,8.7-32.4
				C186.1,79.8,184.7,79.6,183.2,79.6z"/>
			<path id="XMLID_665_" class="st3" d="M415.7,166.2c0.2-0.2,0.3-0.4,0.5-0.6c6.5-7.8,13-13.2,13.1-13.3l0.1-0.1
				c4.7-3.7,9.2-6.8,13.5-9.2c-0.1-4.1-1.2-8.3-3-11.9c-1.9-3.8-4.6-6.9-7.5-8.7c-2-1.2-4-1.8-6.2-1.8c-1.4,0-2.8,0.2-4.3,0.8
				c-1.5,0.6-3.1,1.4-4.9,2.7c-3.1,2.3-6.5,6.1-9.9,11.6c3.7,10.1,6.2,20.4,7.7,30.6C415.1,166.2,415.4,166.2,415.7,166.2z"/>
			<path id="XMLID_664_" class="st4" d="M416.3,192.7c1.5,0.2,2.9,0.3,4.3,0.3c6.7,0,12.6-1.8,16.9-3.7c4.3-1.9,6.9-3.8,6.9-3.8l0,0
				c1.5-1.2,3.7-0.8,4.9,0.7c1.2,1.5,0.8,3.7-0.7,4.9c-0.2,0.1-3.1,2.3-8,4.5c-4.9,2.2-11.8,4.4-19.9,4.4c-1.5,0-3-0.1-4.6-0.3
				c-0.1,1.4-0.2,2.8-0.4,4.2c0.8,0.6,1.6,1.2,2.5,1.7c4,2.4,9.2,4.3,14.2,5.6c10.2,2.7,20,3.4,20.5,3.4l0,0l0.1,0
				c1.4,0.1,2.7,0.2,4,0.2c4.6,0,8.6-0.7,12.2-2c3.6-1.3,6.8-3.2,9.5-5.5c5.5-4.6,9.5-11.1,11.7-18.3c1.5-4.8,2.3-9.9,2.3-14.8
				c0-4.8-0.7-9.5-2.1-13.7c-1.4-4.2-3.4-7.9-6-10.8c-1.7-1.9-3.7-3.5-6-4.8c-3-1.6-6.5-2.5-10.6-2.5c-4.3,0-9.3,1-15,3.5
				c-5.7,2.4-12.1,6.3-19.2,11.9l0,0c-0.1,0.1-0.2,0.2-0.3,0.3c-0.3,0.3-0.7,0.7-1.3,1.2c-1.1,1-2.7,2.5-4.4,4.3
				c-3.6,3.6-8,8.6-11.6,13.9c0,0,0,0.1-0.1,0.1c0.3,3.7,0.4,7.3,0.4,11C416.4,189.8,416.4,191.2,416.3,192.7z"/>
			<path id="XMLID_663_" class="st5" d="M497.7,159.9c-1.9-6.8-5.3-12.9-10.3-17.4c-2.5-2.2-5.4-4.1-8.7-5.3
				c-3.3-1.3-6.9-1.9-10.8-1.9c-5.4,0-11.3,1.3-17.8,4c-0.2,0.1-0.4,0.2-0.6,0.3c-0.7-5.9-2.9-11.6-6.2-16.2c-2-2.8-4.5-5.3-7.5-7
				c-2.9-1.8-6.3-2.8-9.9-2.8c-2.2,0-4.5,0.4-6.7,1.2c-3.4,1.2-6.7,3.4-9.9,6.5c-1.9,1.8-3.7,4-5.5,6.4c1.1,2.6,2.1,5.3,3.1,7.9
				c3.4-5.5,6.8-9.2,9.9-11.6c1.7-1.3,3.3-2.2,4.9-2.7c1.5-0.6,2.9-0.8,4.3-0.8c2.2,0,4.3,0.6,6.2,1.8c3,1.8,5.6,4.9,7.5,8.7
				c1.8,3.6,2.9,7.8,3,11.9c-4.3,2.4-8.8,5.5-13.5,9.2l-0.1,0.1c-0.1,0.1-6.5,5.6-13.1,13.3c-0.2,0.2-0.3,0.4-0.5,0.6
				c-0.3,0-0.6,0.1-0.9,0.1c0.5,3.7,0.9,7.5,1.2,11.2c0,0,0-0.1,0.1-0.1c3.6-5.3,8-10.3,11.6-13.9c1.8-1.8,3.3-3.3,4.4-4.3
				c0.6-0.5,1-0.9,1.3-1.2c0.1-0.1,0.3-0.2,0.3-0.3l0,0c7.1-5.6,13.5-9.4,19.2-11.9c5.7-2.4,10.7-3.5,15-3.5c4.1,0,7.6,0.9,10.6,2.5
				c2.2,1.2,4.2,2.8,6,4.8c2.6,2.9,4.6,6.6,6,10.8c1.4,4.2,2.1,8.9,2.1,13.7c0,5-0.8,10-2.3,14.8c-2.3,7.2-6.2,13.7-11.7,18.3
				c-2.8,2.3-5.9,4.2-9.5,5.5c-3.6,1.3-7.7,2-12.2,2c-1.3,0-2.6-0.1-4-0.2l-0.1,0l0,0c-0.5,0-10.3-0.7-20.5-3.4
				c-5.1-1.3-10.2-3.2-14.2-5.6c-0.9-0.5-1.7-1.1-2.5-1.7c-0.3,2.6-0.6,5.2-0.9,7.8c1.9,1.1,3.9,2.1,6,3c7.1,3,15,4.7,21.1,5.7
				c6.1,1,10.5,1.3,10.6,1.3l0,0c1.5,0.1,3,0.2,4.5,0.2c7.1,0,13.4-1.6,18.8-4.3c8.1-4.1,14.1-10.8,18-18.5
				c3.9-7.7,5.8-16.4,5.8-24.9C499.6,169.2,499,164.4,497.7,159.9z"/>
			<path id="XMLID_662_" class="st6" d="M59.3,133.5h-0.9c-1.7,0-3.1,1.4-3.1,3.1v1.1c0,1.7,1.4,3.1,3.1,3.1h0.9
				c1.7,0,3.1-1.4,3.1-3.1v-1.1C62.4,134.9,61,133.5,59.3,133.5z"/>
			<path id="XMLID_661_" class="st6" d="M59.3,144h-0.9c-1.7,0-3.1,1.4-3.1,3.1v1.1c0,1.7,1.4,3.1,3.1,3.1h0.9
				c1.7,0,3.1-1.4,3.1-3.1v-1.1C62.4,145.4,61,144,59.3,144z"/>
			<path id="XMLID_660_" class="st6" d="M73,133.5h-0.9c-1.7,0-3.1,1.4-3.1,3.1v1.1c0,1.7,1.4,3.1,3.1,3.1H73c1.7,0,3.1-1.4,3.1-3.1
				v-1.1C76.1,134.9,74.7,133.5,73,133.5z"/>
			<path id="XMLID_659_" class="st6" d="M73,144h-0.9c-1.7,0-3.1,1.4-3.1,3.1v1.1c0,1.7,1.4,3.1,3.1,3.1H73c1.7,0,3.1-1.4,3.1-3.1
				v-1.1C76.1,145.4,74.7,144,73,144z"/>
			<path id="XMLID_658_" class="st6" d="M86,133.5h-0.9c-1.7,0-3.1,1.4-3.1,3.1v1.1c0,1.7,1.4,3.1,3.1,3.1H86c1.7,0,3.1-1.4,3.1-3.1
				v-1.1C89.1,134.9,87.7,133.5,86,133.5z"/>
			<path id="XMLID_657_" class="st6" d="M86,144h-0.9c-1.7,0-3.1,1.4-3.1,3.1v1.1c0,1.7,1.4,3.1,3.1,3.1H86c1.7,0,3.1-1.4,3.1-3.1
				v-1.1C89.1,145.4,87.7,144,86,144z"/>
			<path id="XMLID_656_" class="st6" d="M182.8,152.8c-0.1-0.5-0.3-0.9-0.4-1.4c-2.7-2.8-5.6-5.4-8.7-7.8c-3.9-3.1-8-5.7-11.7-7.4
				c-8.7-4-17.7-5.9-26.4-5.9c-9.3,0-18.2,2.2-25.8,6.2c-0.5,0.3-0.9,0.5-1.3,0.8c-0.4,0.3-0.7,0.6-0.9,0.9
				c-0.1,0.2-0.2,0.4-0.3,0.7c0,0.2-0.1,0.4-0.1,0.6c0,0.6,0.2,1.3,0.6,2.1c0.4,0.7,1.1,1.4,1.9,1.8c0.5,0.3,0.9,0.5,1.3,0.6
				c0.4,0.1,0.8,0.2,1.2,0.2c0.5,0,1-0.1,1.7-0.2c0.6-0.2,1.3-0.4,2.1-0.7c5.9-3,12.4-4.5,19.2-4.5c7.3,0,14.8,1.7,22.2,5.1
				c4.3,2,8.1,4.6,11.6,7.7C173.5,151.7,178.1,152.1,182.8,152.8z"/>
			<path id="XMLID_655_" class="st6" d="M69,300.7c-7.5,2.1-14.5,5.2-19.5,8.8c-7.8,5.8-13.7,13.2-17.7,21.5c-4,8.3-6,17.6-6,27
				c0,1.7,0.1,3.5,0.2,5.2c0.1,1,0.2,1.9,0.5,2.7c0.3,0.9,0.7,1.7,1.5,2.6c1.2,1.1,2.8,1.8,4.2,1.8c0.9,0,1.7-0.2,2.5-0.6
				c0.9-0.5,1.3-0.9,1.6-1.5c0.3-0.6,0.6-1.4,0.7-2.5c0.1-0.7,0.1-1.6,0.1-2.5c-0.1-1.2-0.1-2.3-0.1-3.5c0-7.6,1.8-14.9,5.1-21.4
				c3.4-6.5,8.4-12.3,14.7-17c4.1-3.1,8.8-5.2,13.7-6.6c4.9-1.4,10-2,15.1-2c0.7,0,1.5,0,2.2,0c-3.3-4.5-6.2-9.3-8.6-14.2
				C76,299,72.4,299.7,69,300.7z"/>
			<path id="XMLID_654_" class="st6" d="M72.2,209.9c-10.4,2-19.7,6.8-27.3,13.4c-7.6,6.6-13.5,15.2-17.2,24.9
				c-0.4,1.2-0.8,2.4-0.8,3.6c0,0.6,0.1,1.3,0.3,2c0.4,1.2,1.2,2.2,2.2,2.9c1,0.7,2.1,1.1,3.1,1.1c0.1,0,0.2,0,0.3,0
				c0.7,0,1.1-0.2,1.5-0.3c0.4-0.2,0.8-0.4,1.1-0.8c0.8-0.7,1.6-2,2.4-3.7c3.1-7.7,7.8-14.2,13.9-19.2c5.9-4.9,13.2-8.2,21.2-9.9
				c1.4-5,3-9.9,5.1-14.6C76.1,209.3,74.1,209.6,72.2,209.9z"/>
			<path id="XMLID_653_" class="st5" d="M440.5,195.5c4.9-2.2,7.9-4.4,8-4.5c1.5-1.2,1.9-3.4,0.7-4.9c-1.2-1.5-3.3-1.9-4.9-0.7l0,0
				c0,0-2.6,1.9-6.9,3.8c-4.3,1.9-10.2,3.7-16.9,3.7c-1.4,0-2.8-0.1-4.3-0.3c-0.1,2.3-0.2,4.7-0.3,7c1.6,0.2,3.1,0.3,4.6,0.3
				C428.7,199.9,435.6,197.7,440.5,195.5z"/>
			<path id="XMLID_652_" class="st7" d="M376,93.9c27.8,64.5,6.6,133.8-39.1,181.7c5.3,5.2,10.3,11.4,14.2,17.9c3,4.9,5.4,10,6.8,15
				c15.1-15.7,27.6-33.7,36.5-53.1c9.6-21.1,15-43.9,15-67c0-25.4-6.5-51.4-21.1-76.2C384.7,106,380.6,99.9,376,93.9z"/>
			<path id="XMLID_651_" class="st7" d="M85.5,294.9c4.1,8.4,9.4,16.3,16.3,23.1c19.8,17.4,40.3,29.7,60.9,37.7
				c20.6,8,41.4,11.6,61.7,11.6c14.3,0,28.4-1.8,42-5.2c-1.8-2.8-3.9-5.5-6.4-7.9c-5-4.9-11.1-8.9-17.1-11.4
				c-1.8-0.7-2.6-2.8-1.9-4.6c0.7-1.8,2.8-2.6,4.6-1.9c0.1,0,0.1,0.1,0.2,0.1l3.4-7C197.8,344.2,139.2,337,85.5,294.9z"/>
			<path id="XMLID_650_" class="st7" d="M273.1,327.2c6.3,5.7,12.4,12.9,17,20.5c1.1,1.8,2.1,3.6,3,5.5c11.6-4.9,22.7-10.9,33-18
				c2.3-1.6,4.6-3.2,6.8-4.8c0-0.6,0-1.2,0-1.7c0-3.8-0.5-7.7-1.6-11.6c-1.7-6.3-5.5-12.1-10.4-17.1c-1.7-1.7-3.6-3.3-5.6-4.8
				c-14.4,11.3-30.5,20.8-47.6,27.7C269.6,324.2,271.3,325.6,273.1,327.2z"/>
			<path id="XMLID_636_" class="st8" d="M416,199.7c0.2-2.3,0.3-4.7,0.3-7c0-1.4,0.1-2.9,0.1-4.3c0-3.6-0.1-7.3-0.4-11
				c-0.3-3.7-0.7-7.4-1.2-11.2c-1.5-10.2-4-20.5-7.7-30.6c-1-2.6-2-5.3-3.1-7.9c-2.7-6.4-5.9-12.8-9.6-19.1
				c-5.4-9.2-11.9-18.3-19.4-27.1c0-0.1,0-0.1,0-0.2c0-4.7-0.9-9.3-2.5-13.6c-1.6-4.3-4.1-8.2-7.2-11.4c-3.2-3.2-7.1-5.6-11.4-7.3
				c-4.3-1.7-8.9-2.5-13.6-2.5c-1,0-2.1,0.1-3.1,0.1c-4.7-3.5-9.7-7-14.9-10.3c-0.1-0.1-0.2-0.1-0.3-0.2
				c-16.1-8.3-32.2-12.2-47.3-12.4c-0.4-1.9-0.6-3.9-0.4-5.9c0.2-1.9-1.2-3.6-3.2-3.8c-1.9-0.2-3.6,1.2-3.8,3.2
				c-0.2,2.3-0.1,4.5,0.3,6.7c-4.5,0.3-9,0.9-13.3,1.8c-2.2-3.4-3.4-7.5-3-11.9c0.2-1.9-1.2-3.6-3.2-3.8c-1.9-0.2-3.6,1.2-3.8,3.2
				c-0.5,5.1,0.6,10,2.9,14.3c-16,4.7-30.1,13.7-41.4,25.6c-5.9,6.2-11,13.2-15.1,20.8c-2.4-0.8-4.9-1.2-7.3-1.2
				c-4.1,0-8.2,1.1-11.8,2.9c-3.6,1.8-6.8,4.5-9,7.7c-2.6,3.9-3.9,8.6-3.9,13.4c0,4.4,1.1,8.9,3.4,12.8c2.3,3.9,5.9,7.2,10.8,9
				c1.8,0.7,3.7,1,5.5,1.1c0,0.9,0,1.8,0,2.8c0,5.6,0.5,11.3,1.4,17.1c-4.7-3.9-9.8-7.3-14.8-9.6c-9.6-4.4-19.6-6.5-29.3-6.5
				c-7.4,0-14.5,1.2-21.2,3.6c-2.6-2.2-6-3.6-9.7-3.6H56.7c-4.1,0-7.9,1.7-10.6,4.4c-2.7,2.7-4.4,6.5-4.4,10.6v7.9
				c0,4.1,1.7,7.9,4.4,10.6c2.7,2.7,6.5,4.4,10.6,4.4h48.1c4.1,0,7.9-1.7,10.6-4.4c2-2,3.4-4.6,4.1-7.4c4.8-2.5,10.2-3.7,15.8-3.7
				c6.2,0,12.7,1.5,19.3,4.5c1,0.5,2,1,3,1.5c-12.2,0.9-23.2,3.9-33.1,8.5c-17.9,8.4-31.8,22.2-41.1,38.6c-0.6,1.1-1.2,2.2-1.8,3.4
				c-0.2,0-0.5,0-0.7,0c-3.4,0-6.8,0.3-9.9,0.9c-11.7,2.3-22.1,7.6-30.5,15c-8.5,7.4-15,17-19.2,27.7l-0.1,0.2
				c-0.4,1.2-1.2,3.3-1.2,5.9c0,1.3,0.2,2.8,0.7,4.2l0,0.1c0.9,2.6,2.6,4.7,4.6,6.2c2.1,1.5,4.6,2.4,7.3,2.4c0.2,0,0.4,0,0.7,0l0,0
				c1.4-0.1,2.8-0.4,4-0.9c1.8-0.8,3.3-2.1,4.4-3.5c1.1-1.4,1.9-2.9,2.7-4.4l0.1-0.3c2.6-6.7,6.7-12.3,11.9-16.5
				c4.2-3.5,9.3-6.1,15-7.7c-1.4,7.1-2.1,14.3-2.1,21.6c0,12.8,2.2,25.5,6.8,37.5c0.2,0.4,0.3,0.9,0.5,1.3c-3.1,0.5-6.3,1.2-9.3,2.1
				c-8.1,2.3-15.8,5.5-21.8,9.9c-8.7,6.5-15.4,14.8-19.9,24.1c-4.5,9.3-6.7,19.6-6.7,30c0,1.9,0.1,3.9,0.2,5.9l0,0.2
				c0.1,0.9,0.3,2.4,0.8,4.1c0.5,1.7,1.5,3.6,3.2,5.3l0.1,0.1c2.5,2.5,5.9,3.8,9.2,3.8c2,0,4-0.5,5.8-1.5c1.3-0.7,2.3-1.6,3.2-2.6
				c1.3-1.5,2-3.3,2.4-5c0.4-1.7,0.5-3.4,0.5-5.1l0-0.3c-0.1-1.1-0.1-2.1-0.1-3.2c0-6.5,1.5-12.7,4.4-18.2
				c2.9-5.5,7.1-10.5,12.7-14.6c3.3-2.5,7.2-4.3,11.4-5.5c4.2-1.2,8.7-1.7,13.2-1.7c2.9,0,5.7,0.2,8.5,0.7c0.8,0.9,1.7,1.8,2.6,2.7
				l0.2,0.1c20.4,18,41.6,30.8,63.1,39.1c21.4,8.3,43.1,12.1,64.2,12.1c15.4,0,30.6-2,45.2-5.8c0.3,0.9,0.6,1.8,0.9,2.7
				c1.1,4,1.6,7.8,1.6,11.6c0,5-0.9,9.9-2.7,14.4c-1.8,4.5-4.5,8.8-8,12.7l-0.2,0.2c-1,1.3-2,2.6-2.7,4.2c-0.8,1.5-1.3,3.3-1.3,5.2
				c0,1.4,0.3,2.9,0.9,4.4c1,2.4,2.7,4.3,4.8,5.6c2.1,1.3,4.5,2,7,2c0.5,0,1,0,1.5-0.1l0.1,0c2.4-0.3,4.3-1.2,5.8-2.2
				c1.5-1,2.5-2,3.2-2.7l0.1-0.1c11.9-12.7,18.9-29.3,18.9-46.7c0-5.5-0.7-11.2-2.2-16.7c-0.3-1.2-0.7-2.3-1.1-3.5
				c0.5-0.2,1.1-0.5,1.7-0.7c11.9-5.1,23.1-11.5,33.7-18.7c-0.3,1-0.6,2-1,2.9c-1.8,4.5-4.5,8.8-8,12.7l-0.2,0.2
				c-1,1.3-2,2.6-2.7,4.2c-0.8,1.5-1.3,3.3-1.3,5.2c0,1.4,0.3,2.9,0.9,4.4c1,2.4,2.7,4.3,4.8,5.6c2.1,1.3,4.5,2,7,2
				c0.5,0,1,0,1.5-0.1l0.1,0c2.4-0.3,4.3-1.2,5.8-2.2c1.5-1,2.5-2,3.2-2.7l0.1-0.1c11.9-12.7,18.9-29.3,18.9-46.7
				c0-2.9-0.2-5.9-0.6-8.8c8.4-8.3,16.1-17.4,22.9-27c16.6-23.4,28-50.2,32.1-78.2c0.4-2.6,0.7-5.2,0.9-7.8
				C415.8,202.5,415.9,201.1,416,199.7z M62.4,148.2c0,1.7-1.4,3.1-3.1,3.1h-0.9c-1.7,0-3.1-1.4-3.1-3.1v-1.1c0-1.7,1.4-3.1,3.1-3.1
				h0.9c1.7,0,3.1,1.4,3.1,3.1V148.2z M62.4,137.7c0,1.7-1.4,3.1-3.1,3.1h-0.9c-1.7,0-3.1-1.4-3.1-3.1v-1.1c0-1.7,1.4-3.1,3.1-3.1
				h0.9c1.7,0,3.1,1.4,3.1,3.1V137.7z M76.1,148.2c0,1.7-1.4,3.1-3.1,3.1h-0.9c-1.7,0-3.1-1.4-3.1-3.1v-1.1c0-1.7,1.4-3.1,3.1-3.1
				H73c1.7,0,3.1,1.4,3.1,3.1V148.2z M76.1,137.7c0,1.7-1.4,3.1-3.1,3.1h-0.9c-1.7,0-3.1-1.4-3.1-3.1v-1.1c0-1.7,1.4-3.1,3.1-3.1H73
				c1.7,0,3.1,1.4,3.1,3.1V137.7z M89.1,148.2c0,1.7-1.4,3.1-3.1,3.1h-0.9c-1.7,0-3.1-1.4-3.1-3.1v-1.1c0-1.7,1.4-3.1,3.1-3.1H86
				c1.7,0,3.1,1.4,3.1,3.1V148.2z M89.1,137.7c0,1.7-1.4,3.1-3.1,3.1h-0.9c-1.7,0-3.1-1.4-3.1-3.1v-1.1c0-1.7,1.4-3.1,3.1-3.1H86
				c1.7,0,3.1,1.4,3.1,3.1V137.7z M340.2,53.5c3.8,0,7.6,0.7,11.1,2.1c3.2,1.2,6,3,8.3,5.1c0.2,0.2,0.4,0.4,0.6,0.6
				c2.4,2.4,4.3,5.5,5.6,9c1.3,3.5,2.1,7.3,2,11.1c0,4.2-0.9,8.4-2.7,12c-0.9,1.7-1.9,3.3-3.2,4.7c-1.5,1.6-3.2,3.1-5.3,4.3
				c-1,0.6-2,1-3.1,1.4c-1.6,0.5-3.4,0.8-5.2,0.8c-3.5,0-7.3-0.9-11-2.6c-0.9-0.4-1.7-0.8-2.6-1.3c-4.6-2.6-9-6.3-12.3-10.5
				c-1.9-2.5-3.5-5.2-4.6-7.9c-1.1-2.7-1.6-5.5-1.6-8.1c0-3.2,0.8-6.4,2.7-9.4c2.4-3.8,5.5-6.5,9.2-8.4
				C331.9,54.4,336,53.5,340.2,53.5z M178.7,112.6c-1.1,0-2.3-0.2-3.4-0.7c-3.2-1.2-5.6-3.3-7.2-6.1c-1.6-2.7-2.4-6-2.4-9.3
				c0-3.5,1-6.9,2.7-9.5c1.4-2.1,3.7-4.1,6.3-5.4c2.7-1.4,5.7-2.1,8.6-2.1c1.4,0,2.8,0.2,4.2,0.6
				C182.8,90.2,179.8,101.2,178.7,112.6z M157.4,143.8c-7.4-3.4-14.9-5.1-22.2-5.1c-6.8,0-13.3,1.5-19.2,4.5
				c-0.8,0.3-1.5,0.6-2.1,0.7c-0.6,0.2-1.2,0.2-1.7,0.2c-0.4,0-0.8,0-1.2-0.2c-0.4-0.1-0.8-0.3-1.3-0.6c-0.8-0.5-1.4-1.1-1.9-1.8
				c-0.4-0.7-0.6-1.4-0.6-2.1c0-0.2,0-0.4,0.1-0.6c0.1-0.3,0.2-0.5,0.3-0.7c0.2-0.3,0.5-0.6,0.9-0.9c0.4-0.3,0.8-0.5,1.3-0.8
				c7.6-4,16.5-6.2,25.8-6.2c8.7,0,17.7,1.9,26.4,5.9c3.7,1.7,7.8,4.3,11.7,7.4c3,2.4,6,5,8.7,7.8c0.1,0.5,0.3,0.9,0.4,1.4
				c-4.7-0.7-9.3-1.1-13.8-1.2C165.6,148.4,161.7,145.8,157.4,143.8z M73.1,223.9c-8.1,1.7-15.3,5.1-21.2,9.9
				c-6.1,5-10.8,11.5-13.9,19.2c-0.8,1.7-1.7,3-2.4,3.7c-0.4,0.4-0.7,0.6-1.1,0.8c-0.4,0.2-0.9,0.3-1.5,0.3c-0.1,0-0.2,0-0.3,0
				c-1.1,0-2.2-0.4-3.1-1.1c-1-0.7-1.7-1.7-2.2-2.9c-0.2-0.7-0.3-1.4-0.3-2c0-1.3,0.4-2.4,0.8-3.6c3.7-9.7,9.6-18.3,17.2-24.9
				c7.6-6.7,16.8-11.4,27.3-13.4c1.8-0.4,3.8-0.6,5.9-0.7C76.2,214,74.5,218.9,73.1,223.9z M85.8,312.6c-5.1,0-10.2,0.6-15.1,2
				c-4.9,1.4-9.6,3.5-13.7,6.6c-6.4,4.7-11.3,10.5-14.7,17c-3.4,6.5-5.1,13.8-5.1,21.4c0,1.2,0,2.3,0.1,3.5c0,0.9-0.1,1.8-0.1,2.5
				c-0.1,1.1-0.4,2-0.7,2.5c-0.3,0.6-0.8,1-1.6,1.5c-0.7,0.4-1.6,0.6-2.5,0.6c-1.5,0-3.1-0.6-4.2-1.8c-0.8-0.9-1.2-1.7-1.5-2.6
				c-0.3-0.9-0.4-1.8-0.5-2.7c-0.1-1.7-0.2-3.5-0.2-5.2c0-9.4,2-18.7,6-27c4-8.3,9.9-15.7,17.7-21.5c4.9-3.7,12-6.7,19.5-8.8
				c3.4-1,6.9-1.7,10.4-2.2c2.4,5,5.3,9.7,8.6,14.2C87.3,312.6,86.5,312.6,85.8,312.6z M394.4,255.4c-8.9,19.4-21.3,37.4-36.5,53.1
				c-1.4-5-3.8-10.1-6.8-15c-4-6.5-9-12.7-14.2-17.9c-0.9-0.9-1.8-1.8-2.8-2.6c-3.1-2.8-6.3-5.3-9.5-7.2c-3.1-1.9-6.2-3.3-9.2-3.9
				c-1.9-0.4-3.7,0.9-4.1,2.8c-0.4,1.9,0.9,3.7,2.8,4.1h0c1.2,0.2,2.7,0.8,4.4,1.6c2.9,1.4,6.2,3.7,9.5,6.6
				c5,4.3,10.1,9.9,14.3,15.9c4.2,6,7.5,12.3,9,17.9c1.3,5,2,10,2,14.9c0,15.4-6.2,30.3-16.9,41.8c-0.7,0.7-1.3,1.3-2.1,1.8
				c-0.8,0.5-1.6,0.9-2.8,1.1c-0.2,0-0.4,0-0.6,0c-1.2,0-2.3-0.3-3.3-0.9c-0.9-0.6-1.7-1.4-2-2.4c-0.3-0.7-0.4-1.2-0.4-1.7
				c0-0.6,0.2-1.3,0.6-2.2c0.4-0.8,1.1-1.8,1.9-2.9c4-4.4,7.1-9.4,9.2-14.7c2.1-5.4,3.2-11.1,3.2-17c0-4.4-0.6-8.9-1.8-13.4
				c-2.1-7.7-6.6-14.6-12.3-20.2c-5.7-5.6-12.5-10-19.3-12.9c-1.8-0.7-3.8,0.1-4.6,1.9c-0.7,1.8,0.1,3.8,1.9,4.6
				c3.9,1.6,7.9,3.9,11.5,6.6c2,1.5,3.8,3.1,5.6,4.8c5,4.9,8.8,10.8,10.4,17.1c1.1,4,1.6,7.8,1.6,11.6c0,0.6,0,1.2,0,1.7
				c-2.2,1.6-4.5,3.3-6.8,4.8c-10.4,7-21.5,13.1-33,18c-0.9-1.8-1.9-3.7-3-5.5c-4.6-7.6-10.7-14.8-17-20.5c-1.7-1.6-3.5-3-5.3-4.3
				c-1.4-1-2.8-2-4.2-2.9c-3.1-1.9-6.2-3.3-9.2-3.9c-1.9-0.4-3.7,0.9-4.1,2.8c-0.4,1.9,0.9,3.7,2.8,4.1v0c1.2,0.2,2.7,0.8,4.4,1.6
				c2.9,1.4,6.2,3.7,9.5,6.6c5,4.3,10.1,9.9,14.3,15.9c4.2,6,7.5,12.3,9,17.9c1.3,5,2,10,2,14.9c0,15.4-6.2,30.3-16.9,41.8
				c-0.7,0.7-1.3,1.3-2.1,1.8c-0.8,0.5-1.6,0.9-2.8,1.1c-0.2,0-0.4,0-0.6,0c-1.2,0-2.3-0.3-3.3-0.9c-0.9-0.6-1.7-1.4-2-2.4
				c-0.3-0.7-0.4-1.2-0.4-1.7c0-0.6,0.2-1.3,0.6-2.2c0.4-0.8,1.1-1.8,1.9-2.9c4-4.4,7.1-9.4,9.2-14.7c2.1-5.4,3.2-11.1,3.2-17
				c0-4.4-0.6-8.9-1.8-13.4c-2.1-7.7-6.6-14.6-12.3-20.2c-5.6-5.6-12.4-10-19.2-12.8c-0.1,0-0.1-0.1-0.2-0.1
				c-1.8-0.7-3.8,0.1-4.6,1.9c-0.7,1.8,0.1,3.8,1.9,4.6c6,2.5,12.1,6.5,17.1,11.4c2.5,2.4,4.6,5.1,6.4,7.9
				c-13.6,3.4-27.7,5.2-42,5.2c-20.3,0-41-3.6-61.7-11.6c-20.6-8-41.1-20.3-60.9-37.7c-6.8-6.8-12.2-14.7-16.3-23.1
				c-1.1-2.2-2.1-4.5-3-6.8c-4.2-11.1-6.3-23-6.3-35c0-23.6,8.1-47.4,23.3-65.1c7.6-8.9,16.9-16.2,27.9-21.4c11-5.2,23.7-8.1,38-8.1
				c5,0,10.1,0.4,15.5,1.1c0.1,0,0.3,0.1,0.4,0.1c0.4,0.1,0.8,0.1,1.3,0.2c1.7,0.3,4.2,0.8,7.3,2.1c3,1.4,6.5,3.6,10,7.5
				c1.3,1.4,3.5,1.6,4.9,0.3c1.4-1.3,1.6-3.5,0.3-4.9c-4.7-5.3-9.8-8.3-13.9-9.9c-0.2-0.1-0.5-0.2-0.7-0.2c0-0.5-0.1-1.1-0.3-1.6
				l-2.3,0.8c0,0,0,0,0,0l2.3-0.8c-3.4-10.4-5-20.7-5-30.8c0-24.8,9.7-47.8,25.5-64.5c15.9-16.7,37.8-27.2,62.4-27.2
				c14.4,0,29.7,3.6,45.3,11.6c3.2,2.1,6.4,4.2,9.4,6.4c-1,0.4-1.9,0.8-2.8,1.2c-4.7,2.3-8.9,6-12,10.9c-2.6,4.1-3.7,8.7-3.7,13.1
				c0,4.9,1.4,9.6,3.6,14c3.4,6.6,8.8,12.3,15,16.6c3.1,2.1,6.4,3.8,9.9,5c3.4,1.2,7,1.9,10.5,1.9c4.1,0,8.2-0.9,11.8-3.1l-1.8-3
				l1.8,3c5.1-3,8.8-7.2,11.2-11.9c0.9-1.8,1.6-3.7,2.2-5.6c0.8,1,1.6,2,2.4,3c4.6,6,8.7,12.1,12.3,18.2
				c14.6,24.9,21.1,50.8,21.1,76.2C409.4,211.5,404,234.3,394.4,255.4z"/>
			<path id="XMLID_632_" class="st6" d="M376,93.9c-0.8-1-1.6-2-2.4-3c-0.5,1.9-1.3,3.8-2.2,5.6c-2.4,4.7-6.1,8.9-11.2,11.9l-1.8-3
				l1.8,3c-3.7,2.1-7.7,3.1-11.8,3.1c-3.5,0-7.1-0.7-10.5-1.9c-3.4-1.2-6.8-2.9-9.9-5c-6.2-4.2-11.6-10-15-16.6
				c-2.3-4.4-3.6-9.1-3.6-14c0-4.4,1.2-8.9,3.7-13.1c3.1-5,7.3-8.6,12-10.9c0.9-0.5,1.9-0.9,2.8-1.2c-3-2.2-6.2-4.3-9.4-6.4
				c-15.7-8-31-11.6-45.3-11.6c-24.6,0-46.6,10.5-62.4,27.2c-15.9,16.7-25.6,39.6-25.5,64.5c0,10,1.6,20.4,5,30.8l-2.3,0.8
				c0,0,0,0,0,0l2.3-0.8c0.2,0.5,0.3,1.1,0.3,1.6c0.2,0.1,0.4,0.2,0.7,0.2c4.2,1.6,9.2,4.6,13.9,9.9c1.3,1.4,1.1,3.7-0.3,4.9
				c-1.4,1.3-3.7,1.1-4.9-0.3c-3.4-3.9-6.9-6.1-10-7.5c-3-1.4-5.6-1.9-7.3-2.1c-0.5-0.1-0.9-0.1-1.3-0.2c-0.1,0-0.3-0.1-0.4-0.1
				c-5.4-0.7-10.5-1.1-15.5-1.1c-14.4,0-27,3-38,8.1c-11,5.2-20.3,12.5-27.9,21.4c-15.2,17.7-23.3,41.5-23.3,65.1
				c0,12,2.1,23.9,6.3,35c0.9,2.3,1.9,4.6,3,6.8c53.7,42.1,112.3,49.3,163.5,34.5l-3.4,7c6.8,2.9,13.6,7.3,19.2,12.8
				c5.7,5.6,10.2,12.5,12.3,20.2c1.2,4.5,1.8,9,1.8,13.4c0,5.9-1.1,11.6-3.2,17c-2.1,5.3-5.2,10.3-9.2,14.7
				c-0.8,1.1-1.5,2.1-1.9,2.9c-0.4,0.9-0.6,1.5-0.6,2.2c0,0.5,0.1,1,0.4,1.7c0.4,0.9,1.1,1.8,2,2.4c0.9,0.6,2.1,0.9,3.3,0.9
				c0.2,0,0.4,0,0.6,0c1.2-0.2,2-0.6,2.8-1.1c0.8-0.5,1.4-1.1,2.1-1.8c10.7-11.5,17-26.4,16.9-41.8c0-4.9-0.6-9.9-2-14.9
				c-1.5-5.6-4.8-11.9-9-17.9c-4.2-6-9.3-11.6-14.3-15.9c-3.3-2.9-6.7-5.1-9.5-6.6c-1.6-0.8-3.1-1.3-4.4-1.6v0
				c-1.9-0.4-3.1-2.2-2.8-4.1c0.4-1.9,2.2-3.1,4.1-2.8c3,0.6,6.1,2,9.2,3.9c1.4,0.8,2.8,1.8,4.2,2.9c17.1-7,33.1-16.4,47.6-27.7
				c-3.6-2.7-7.6-5-11.5-6.6c-1.8-0.7-2.6-2.8-1.9-4.6c0.7-1.8,2.8-2.6,4.6-1.9c6.9,2.9,13.7,7.3,19.3,12.9
				c5.7,5.6,10.2,12.5,12.3,20.2c1.2,4.5,1.8,9,1.8,13.4c0,5.9-1.1,11.6-3.2,17c-2.1,5.3-5.2,10.3-9.2,14.7
				c-0.8,1.1-1.5,2.1-1.9,2.9c-0.4,0.9-0.6,1.5-0.6,2.2c0,0.5,0.1,1,0.4,1.7c0.4,0.9,1.1,1.8,2,2.4c0.9,0.6,2.1,0.9,3.3,0.9
				c0.2,0,0.4,0,0.6,0c1.2-0.2,2-0.6,2.8-1.1c0.8-0.5,1.4-1.1,2.1-1.8c10.7-11.5,17-26.4,16.9-41.8c0-4.9-0.6-9.9-2-14.9
				c-1.5-5.6-4.8-11.9-9-17.9c-4.2-6-9.3-11.6-14.3-15.9c-3.3-2.9-6.7-5.1-9.5-6.6c-1.6-0.8-3.1-1.3-4.4-1.6h0
				c-1.9-0.4-3.1-2.2-2.8-4.1c0.4-1.9,2.2-3.1,4.1-2.8c3,0.6,6.1,2,9.2,3.9c3.1,1.9,6.3,4.4,9.5,7.2c0.9,0.8,1.8,1.7,2.8,2.6
				C382.6,227.7,403.8,158.4,376,93.9z M258.3,109.9c-5.1,5-11.7,7.6-18.3,7.6c-6.6,0-13.2-2.5-18.2-7.6c-1.4-1.4-1.4-3.6,0-4.9
				s3.6-1.4,4.9,0c3.7,3.7,8.4,5.5,13.3,5.5c4.8,0,9.7-1.8,13.4-5.5h0c1.4-1.4,3.6-1.4,4.9,0C259.6,106.3,259.6,108.5,258.3,109.9z
				 M372.7,209.2c-1.9,2.5-4.3,5.1-7,7.6c-5.5,5-12.3,9.8-19.3,13.4c-4.7,2.4-9.5,4.3-14.2,5.3c-4.5,1-9,1.5-13.5,1.5
				c-16.1,0-31.1-6.1-42.3-16.6l-0.1-0.1c-0.5-0.5-1.4-1.5-2.3-2.8c-0.8-1.3-1.6-3.1-1.7-5.2l0-0.1c0-0.2,0-0.3,0-0.5
				c0-2.4,0.8-4.7,2.2-6.6c1.4-1.9,3.3-3.3,5.6-4.1c1.2-0.4,2.5-0.7,3.7-0.7c1.8,0,3.4,0.5,4.8,1.2c1.4,0.7,2.6,1.5,3.8,2.4l0.2,0.2
				c6.6,6.1,14.9,9.2,24.3,9.2c3,0,6.2-0.3,9.4-1c5.7-1.2,11.1-4.2,15.8-8.1c4.7-3.9,8.6-8.8,11.1-13.6c0.9-1.7,3-2.3,4.7-1.4
				c1.7,0.9,2.3,3,1.4,4.7c-3,5.6-7.4,11.1-12.8,15.6c-5.4,4.5-11.8,8.1-18.8,9.6c-3.7,0.8-7.3,1.2-10.9,1.2
				c-10.9,0-21-3.7-28.9-10.9c-0.9-0.7-1.7-1.3-2.4-1.6c-0.7-0.3-1.2-0.5-1.8-0.5c-0.4,0-0.8,0.1-1.4,0.3c-0.9,0.3-1.7,0.9-2.2,1.7
				c-0.5,0.7-0.8,1.6-0.8,2.4l0,0.1c0.1,0.8,0.3,1.3,0.6,1.9c0.3,0.5,0.8,1,1.4,1.6c9.8,9.2,23.2,14.6,37.4,14.6c4,0,8-0.4,12-1.3
				c5-1.1,10.9-3.6,16.4-6.9c5.6-3.3,10.9-7.3,15-11.3c2.7-2.6,5-5.3,6.4-7.5c0.8-1.3,1.3-2.5,1.6-3.4l0,0c0.5-1.9,2.5-2.9,4.3-2.4
				c1.9,0.5,2.9,2.5,2.4,4.3C376,204.1,374.6,206.7,372.7,209.2z"/>
			<path id="XMLID_631_" class="st8" d="M374.4,197.2c-1.9-0.5-3.8,0.5-4.3,2.4l0,0c-0.3,0.9-0.8,2.1-1.6,3.4
				c-1.4,2.3-3.6,4.9-6.4,7.5c-4.1,4-9.4,8-15,11.3c-5.6,3.3-11.4,5.8-16.4,6.9c-4,0.9-8.1,1.3-12,1.3c-14.2,0-27.6-5.4-37.4-14.6
				c-0.6-0.6-1-1.1-1.4-1.6c-0.4-0.6-0.6-1.1-0.6-1.9l0-0.1c0-0.8,0.3-1.7,0.8-2.4c0.5-0.7,1.3-1.3,2.2-1.7c0.6-0.2,1-0.3,1.4-0.3
				c0.6,0,1.1,0.1,1.8,0.5c0.7,0.3,1.5,0.9,2.4,1.6c7.9,7.2,18,11,28.9,10.9c3.6,0,7.2-0.4,10.9-1.2c7-1.5,13.4-5.1,18.8-9.6
				c5.4-4.5,9.8-10,12.8-15.6c0.9-1.7,0.3-3.8-1.4-4.7c-1.7-0.9-3.8-0.3-4.7,1.4c-2.6,4.8-6.4,9.7-11.1,13.6
				c-4.7,3.9-10.1,6.9-15.8,8.1c-3.2,0.7-6.4,1-9.4,1c-9.4,0-17.7-3.2-24.3-9.2l-0.2-0.2c-1.1-0.9-2.3-1.7-3.8-2.4
				c-1.4-0.7-3.1-1.2-4.8-1.2c-1.2,0-2.5,0.2-3.7,0.7c-2.3,0.8-4.2,2.3-5.6,4.1c-1.4,1.9-2.2,4.1-2.2,6.6c0,0.2,0,0.3,0,0.5l0,0.1
				c0.1,2.1,0.9,3.9,1.7,5.2c0.8,1.3,1.8,2.2,2.3,2.8l0.1,0.1c11.1,10.5,26.2,16.6,42.3,16.6c4.4,0,9-0.5,13.5-1.5
				c4.6-1,9.5-2.9,14.2-5.3c7.1-3.6,13.9-8.4,19.3-13.4c2.7-2.5,5.1-5.1,7-7.6c1.9-2.5,3.4-5.1,4.1-7.6
				C377.3,199.7,376.2,197.8,374.4,197.2z"/>
			<path id="XMLID_630_" class="st9" d="M353.6,103.7c1.1-0.3,2.1-0.8,3.1-1.4c2.1-1.2,3.8-2.7,5.3-4.3c-1.6,1.6-3.4,3.1-5.5,4.3
				C355.5,102.9,354.6,103.3,353.6,103.7z"/>
			<path id="XMLID_629_" class="st9" d="M319.1,64.5c-1.9,3.1-2.7,6.2-2.7,9.4c0,2.7,0.6,5.4,1.6,8.1c1.1,2.7,2.6,5.4,4.6,7.9
				c3.3,4.2,7.6,8,12.3,10.5c5.2,0.9,10.2,0.4,14.6-2.2c13.5-7.8,15.6-25,10.1-37.7c-2.3-2.1-5.1-3.9-8.3-5.1
				c-3.5-1.3-7.3-2.1-11.1-2.1c-4.2,0-8.3,0.9-11.9,2.7C324.6,58,321.5,60.7,319.1,64.5z"/>
			<path id="XMLID_628_" class="st10" d="M349.5,98.4c-4.4,2.5-9.5,3.1-14.6,2.2c0.8,0.5,1.7,0.9,2.6,1.3c3.7,1.7,7.5,2.6,11,2.6
				c1.8,0,3.6-0.3,5.2-0.8c1-0.4,1.9-0.8,2.9-1.3c2.1-1.2,3.9-2.7,5.5-4.3c1.3-1.4,2.3-3,3.2-4.7c1.8-3.6,2.7-7.8,2.7-12
				c0-3.8-0.7-7.6-2-11.1c-1.3-3.5-3.3-6.6-5.6-9c-0.2-0.2-0.4-0.4-0.6-0.6C365.1,73.3,363,90.5,349.5,98.4z"/>
			<path id="XMLID_627_" class="st8" d="M253.3,104.9L253.3,104.9c-3.7,3.7-8.6,5.5-13.4,5.5c-4.8,0-9.6-1.8-13.3-5.5
				c-1.4-1.4-3.6-1.4-4.9,0s-1.4,3.6,0,4.9c5,5,11.6,7.6,18.2,7.6c6.6,0,13.3-2.5,18.3-7.6c1.4-1.4,1.4-3.6,0-4.9
				C256.9,103.6,254.7,103.6,253.3,104.9z"/>
		</g>
	</g>
</g>
</svg>
