<?xml version="1.0" encoding="utf-8"?>
<!-- Generator: Adobe Illustrator 19.0.0, SVG Export Plug-In . SVG Version: 6.00 Build 0)  -->
<svg version="1.1" id="Layer_1" xmlns="http://www.w3.org/2000/svg" xmlns:xlink="http://www.w3.org/1999/xlink" x="0px" y="0px"
	 viewBox="-210 379.1 10.4 10" style="enable-background:new -210 379.1 10.4 10;" xml:space="preserve">
<style type="text/css">
	.st0{fill:#FFF03E;}
</style>
<g>
	<path class="st0" d="M-200.2,382.4l-2.9-0.4l-1.3-2.7c-0.1-0.2-0.3-0.3-0.5-0.3c-0.2,0-0.4,0.1-0.5,0.3l-1.3,2.7l-2.9,0.4
		c-0.2,0-0.4,0.2-0.4,0.4c-0.1,0.2,0,0.4,0.1,0.6l2.1,2.1l-0.5,2.9c0,0.2,0.1,0.4,0.2,0.5s0.4,0.1,0.6,0l2.6-1.4l2.6,1.4
		c0.1,0,0.2,0.1,0.3,0.1c0.1,0,0.2,0,0.3-0.1c0.2-0.1,0.2-0.3,0.2-0.5l-0.5-2.9l2.1-2.1c0.2-0.2,0.2-0.4,0.1-0.6
		C-199.8,382.6-200,382.5-200.2,382.4z"/>
</g>
</svg>
